HIERARCHY
ROOT Hips
{
	OFFSET -3.958830 18.904000 13.208200
	CHANNELS 6 Xposition Yposition Zposition Zrotation Yrotation Xrotation 
	JOINT LHipJoint
	{
		OFFSET 0.000000 0.000000 0.000000
		CHANNELS 3 Zrotation Yrotation Xrotation
		JOINT LeftUpLeg
		{
			OFFSET 1.800000 -1.400000 0.085000
			CHANNELS 3 Zrotation Yrotation Xrotation
			JOINT LeftLeg
			{
				OFFSET 2.215000 -6.000000 0.000000
				CHANNELS 3 Zrotation Yrotation Xrotation
				JOINT LeftFoot
				{
					OFFSET 2.500000 -6.900000 0.000000
					CHANNELS 3 Zrotation Yrotation Xrotation
					JOINT LeftToeBase
					{
						OFFSET 0.200000 -0.500000 1.950000
						CHANNELS 3 Zrotation Yrotation Xrotation
						End Site
						{
							OFFSET 0.000000 0.000000 0.000000
						}
					}
				}
			}
		}
	}
	JOINT RHipJoint
	{
		OFFSET 0.000000 0.000000 0.000000
		CHANNELS 3 Zrotation Yrotation Xrotation
		JOINT RightUpLeg
		{
			OFFSET -1.800000 -1.400000 0.085000
			CHANNELS 3 Zrotation Yrotation Xrotation
			JOINT RightLeg
			{
				OFFSET -2.215000 -6.000000 0.000000
				CHANNELS 3 Zrotation Yrotation Xrotation
				JOINT RightFoot
				{
					OFFSET -2.500000 -6.900000 0.000000
					CHANNELS 3 Zrotation Yrotation Xrotation
					JOINT RightToeBase
					{
						OFFSET -0.200000 -0.500000 1.950000
						CHANNELS 3 Zrotation Yrotation Xrotation
						End Site
						{
							OFFSET 0.000000 0.000000 0.000000
						}
					}
				}
			}
		}
	}
	JOINT LowerBack
	{
		OFFSET 0.000000 0.000000 0.000000
		CHANNELS 3 Zrotation Yrotation Xrotation
		JOINT Spine
		{
			OFFSET -0.087000 1.940000 -0.288900
			CHANNELS 3 Zrotation Yrotation Xrotation
			JOINT Spine1
			{
				OFFSET 0.000000 1.950000 0.060000
				CHANNELS 3 Zrotation Yrotation Xrotation
				JOINT Neck
				{
					OFFSET 0.000000 0.000000 0.000000
					CHANNELS 3 Zrotation Yrotation Xrotation
					JOINT Neck1
					{
						OFFSET 0.000000 1.600000 0.340000
						CHANNELS 3 Zrotation Yrotation Xrotation
						JOINT Head
						{
							OFFSET 0.000000 1.667000 -0.240000
							CHANNELS 3 Zrotation Yrotation Xrotation
							End Site
							{
								OFFSET 0.000000 0.000000 0.000000
							}
						}
					}
				}
				JOINT LeftShoulder
				{
					OFFSET 0.000000 0.000000 0.000000
					CHANNELS 3 Zrotation Yrotation Xrotation
					JOINT LeftArm
					{
						OFFSET 2.700000 1.550000 -0.730000
						CHANNELS 3 Zrotation Yrotation Xrotation
						JOINT LeftForeArm
						{
							OFFSET 5.450000 0.000000 0.000000
							CHANNELS 3 Zrotation Yrotation Xrotation
							JOINT LeftHand
							{
								OFFSET 3.450000 0.000000 0.000000
								CHANNELS 3 Zrotation Yrotation Xrotation
								JOINT LeftHandIndex1
								{
									OFFSET 0.750000 0.000000 0.000000
									CHANNELS 3 Zrotation Yrotation Xrotation
									End Site
									{
										OFFSET 0.000000 0.000000 0.000000
									}
								}
							}
						}
					}
				}
				JOINT RightShoulder
				{
					OFFSET 0.000000 0.000000 0.000000
					CHANNELS 3 Zrotation Yrotation Xrotation
					JOINT RightArm
					{
						OFFSET -2.700000 1.550000 -0.730000
						CHANNELS 3 Zrotation Yrotation Xrotation
						JOINT RightForeArm
						{
							OFFSET -5.450000 0.000000 0.000000
							CHANNELS 3 Zrotation Yrotation Xrotation
							JOINT RightHand
							{
								OFFSET -3.450000 0.000000 0.000000
								CHANNELS 3 Zrotation Yrotation Xrotation
								JOINT RightHandIndex1
								{
									OFFSET -0.750000 0.000000 0.000000
									CHANNELS 3 Zrotation Yrotation Xrotation
									End Site
									{
										OFFSET 0.000000 0.000000 0.000000
									}
								}
							}
						}
					}
				}
			}
		}
	}
}
MOTION
Frames: 9
Frame Time: 0.016667
0.502280 16.693130 -1.476670 -23.617115 -37.884321 16.138984 -15.321215 10.378678 1.609953 14.935803 -1.177595 -10.659923 -8.455635 4.242263 -0.664234 -0.769430 4.196861 3.078538 0.572840 0.404180 0.511850 19.094451 -6.002360 7.987206 49.961173 25.942753 -35.294516 -16.654221 3.139012 23.479547 -0.304662 -2.228690 3.390847 0.390860 0.042380 0.210220 -5.273254 -1.879775 -9.438688 34.661182 -8.775083 24.933781 -9.388942 4.892861 5.009354 -0.340216 -7.807453 -9.497268 -14.869185 4.668111 23.166375 -7.448170 5.393820 -21.719490 -20.499494 -14.928977 -3.028298 -6.020421 -27.381971 -6.355255 56.881498 -39.781997 -21.225586 -3.684661 2.518964 0.621380 0.030990 0.162270 0.107770 20.157078 15.467812 11.719738 45.569839 -13.526285 -14.697892 7.996150 42.547840 0.460104 1.727132 -1.521305 -0.258610 0.299140 -0.026660 -0.287290 
0.497640 16.668540 -1.471970 -22.504786 -37.782020 15.721596 -15.385921 10.213065 1.496017 14.002607 -1.323793 -10.393397 -8.525606 4.123175 -1.057581 -0.773618 4.150915 3.109979 0.578740 0.413480 0.511510 19.116993 -5.592017 8.407639 49.614097 28.641540 -38.339490 -19.718663 4.688459 29.108900 -0.478972 -3.101192 3.080312 0.402540 0.057080 0.211440 -5.274765 -2.073151 -9.594504 33.375163 -8.364776 24.941431 -8.672642 4.743416 4.555399 -0.528843 -7.748477 -9.082267 -14.540238 4.631533 22.607683 -7.384230 5.409430 -21.336940 -20.457445 -13.921799 -3.329688 -7.087123 -27.719458 -5.822015 56.407601 -40.793192 -21.364460 -3.685038 2.513803 0.607000 0.044720 0.152800 0.116120 20.468749 14.497214 11.336505 45.190408 -13.753062 -14.526740 9.500341 42.959952 0.936924 1.725815 -1.548657 -0.260870 0.304230 -0.031400 -0.282280 
0.493000 16.639980 -1.466840 -20.960721 -37.555930 14.670783 -15.450523 10.125860 1.371194 12.937167 -1.432171 -10.311230 -8.828310 4.175964 -0.496002 -0.773395 4.101960 3.137172 0.569910 0.410970 0.487790 19.126025 -5.232869 8.812639 47.451088 31.717272 -42.640680 -21.268494 6.090914 36.601123 -0.714115 -4.313297 2.669226 0.402560 0.079950 0.212050 -5.257425 -2.315140 -9.716201 31.723643 -8.120908 25.388367 -7.902616 4.455118 3.843603 -0.770185 -7.801853 -8.684508 -14.509008 4.755664 22.107008 -7.065140 5.369190 -20.800730 -20.670948 -12.851170 -3.620835 -8.108315 -27.509794 -5.419371 55.766302 -42.720119 -21.749376 -3.681049 2.500635 0.585760 0.060240 0.135910 0.123670 21.178476 13.535145 10.975251 44.759655 -14.158049 -14.470083 11.378346 43.576149 1.541061 1.723571 -1.578821 -0.258710 0.307410 -0.025090 -0.269390 
0.493570 16.609790 -1.453300 -19.129636 -37.329576 13.149521 -15.502777 10.115843 1.289768 11.719520 -1.532725 -10.233572 -9.445814 4.364317 0.570885 -0.767980 4.083354 3.155217 0.545920 0.396460 0.450860 19.116888 -5.009647 9.095267 43.047674 34.685737 -48.249010 -19.854923 6.376421 46.140459 -0.989298 -5.758526 2.198862 0.396080 0.113370 0.208450 -5.231825 -2.539431 -9.769700 30.064865 -7.957163 25.916571 -7.300693 4.007435 3.094182 -0.978745 -7.898701 -8.237372 -14.678263 5.003538 21.819643 -6.778390 5.396030 -20.034690 -20.609971 -11.488199 -3.931341 -9.675224 -27.417263 -4.898084 54.690830 -44.760917 -22.010617 -3.681862 2.479614 0.560830 0.080960 0.113680 0.130100 21.521986 12.299609 10.437011 44.586718 -14.264538 -14.331414 13.498006 44.042245 2.268446 1.728524 -1.596495 -0.262170 0.317760 -0.010810 -0.252800 
0.500820 16.586480 -1.432570 -17.346429 -36.893142 11.697100 -15.518945 10.169923 1.244145 10.445570 -1.621213 -10.505183 -9.915971 4.607520 2.046405 -0.751839 4.047894 3.187893 0.502070 0.361780 0.399750 19.107897 -4.978853 9.214318 37.531692 37.030030 -54.612457 -17.348720 5.521026 55.196605 -1.242259 -7.165152 1.767907 0.375900 0.164980 0.202370 -5.226386 -2.653302 -9.740766 29.041343 -7.934003 25.984234 -7.345374 3.496828 2.196385 -0.941682 -7.900633 -7.712133 -14.745451 5.245414 21.886456 -6.587170 5.534020 -18.390230 -20.918733 -10.056561 -4.379851 -11.019813 -27.222244 -4.344193 52.766188 -47.647126 -22.015796 -3.689764 2.456021 0.516700 0.117460 0.076360 0.139420 21.680154 10.838701 9.829531 45.063621 -14.281924 -14.157407 15.254533 44.090745 2.885460 1.745890 -1.607002 -0.267840 0.325680 0.004770 -0.229250 
0.505970 16.567420 -1.405380 -15.443386 -36.619808 10.160723 -15.523199 10.273609 1.242708 9.129272 -1.717935 -10.970712 -10.461379 4.940795 3.878944 -0.719488 4.039383 3.208595 0.464800 0.327580 0.350650 19.084700 -5.063137 9.204274 32.178341 38.570410 -60.603431 -15.032711 4.155388 63.061832 -1.472148 -8.456627 1.388310 0.354140 0.216290 0.202140 -5.208948 -2.740479 -9.674218 27.890138 -7.674157 25.804534 -7.275402 3.067109 1.422170 -0.986577 -7.819505 -7.217402 -14.715188 5.367403 22.155473 -6.084260 5.517990 -16.279460 -21.087734 -8.661909 -4.767125 -12.626244 -27.060790 -3.760354 50.240938 -50.676872 -21.784688 -3.693442 2.466144 0.462870 0.154500 0.034840 0.154040 21.863584 9.384221 9.220682 45.499977 -14.271915 -13.850033 16.222313 43.571487 3.225272 1.769714 -1.626238 -0.264840 0.319400 0.012940 -0.201750 
0.499700 16.548480 -1.369580 -13.362273 -35.824623 8.340342 -15.528024 10.400576 1.261041 7.507245 -1.785187 -10.912661 -10.427263 5.105520 5.132584 -0.701233 4.024641 3.243751 0.408500 0.270400 0.291920 19.055251 -5.177330 9.141311 27.146925 39.864497 -67.255723 -13.454315 2.812647 69.714287 -1.659054 -9.616449 1.060454 0.327710 0.284290 0.201390 -5.177273 -2.850734 -9.586800 26.611320 -7.442516 25.333187 -7.110219 2.466829 0.664048 -1.127774 -7.599932 -6.558136 -14.460300 5.323467 22.472233 -5.902250 5.489180 -13.938070 -20.966708 -6.913778 -5.245053 -14.697020 -27.486190 -2.773722 46.631349 -53.406220 -20.858353 -3.728535 2.490474 0.407800 0.208110 -0.020640 0.161700 21.931028 7.382091 8.352025 46.092556 -14.002443 -13.350508 16.300336 42.627624 3.329895 1.785105 -1.628212 -0.277370 0.321890 0.037280 -0.180150 
0.502910 16.551950 -1.347960 -11.863452 -35.503673 6.198237 -15.514536 10.588545 1.320852 6.743172 -1.803253 -10.700764 -10.707422 5.486122 6.899317 -0.655402 4.106191 3.223300 0.379080 0.234080 0.266420 19.011150 -5.386081 8.977642 23.230746 39.377304 -70.863697 -11.749742 1.317815 72.278824 -1.713918 -10.017378 0.950364 0.295740 0.299620 0.198610 -5.150476 -2.901737 -9.485056 25.771424 -7.534777 25.978969 -7.111385 2.010421 0.122163 -1.276059 -7.679426 -6.212558 -15.084954 5.440707 23.479367 -5.690030 5.391100 -12.925110 -21.098817 -5.971408 -5.487543 -16.279627 -27.740763 -2.323512 43.292811 -54.956083 -19.728131 -3.724656 2.523726 0.393430 0.212040 -0.034010 0.163780 22.257696 6.399049 7.795735 46.792249 -13.339597 -13.235567 14.582744 41.925516 2.941995 1.811292 -1.604998 -0.273130 0.314150 0.043640 -0.167840 
0.501080 16.540510 -1.320810 -10.805626 -35.028256 4.787241 -15.496118 10.702184 1.363063 6.209862 -1.882494 -10.639761 -11.043976 5.854506 8.485191 -0.631883 4.214760 3.187245 0.351140 0.203600 0.240820 18.990510 -5.541430 8.841583 20.331400 38.940667 -73.907560 -10.305547 0.123404 73.388555 -1.712261 -10.192066 0.895760 0.280300 0.316980 0.187510 -5.158784 -2.907777 -9.386804 25.497723 -7.736361 25.811224 -7.335412 1.444840 -0.352801 -1.455939 -7.719590 -5.793816 -15.530970 5.617842 24.125083 -5.376800 5.312760 -12.024840 -20.692933 -4.563592 -5.692017 -18.494569 -28.369759 -1.445433 41.069371 -55.737198 -18.903205 -3.731056 2.548063 0.381040 0.218740 -0.054690 0.159880 22.098995 4.852355 6.968130 47.971046 -12.349553 -12.986313 12.449335 41.269968 2.514334 1.832561 -1.573346 -0.282410 0.315360 0.056800 -0.162170 
